<mxfile host="app.diagrams.net" modified="2023-11-07T23:46:55.837Z" agent="Mozilla/5.0 (Macintosh; Intel Mac OS X 10_15_7) AppleWebKit/537.36 (KHTML, like Gecko) Chrome/119.0.0.0 Safari/537.36" etag="47B2shaMftbn-8hojQxp" version="22.0.8" type="device">
  <diagram name="Page-1" id="nfhcPz2awnlZYaeG_4IF">
    <mxGraphModel dx="1306" dy="720" grid="1" gridSize="10" guides="1" tooltips="1" connect="1" arrows="1" fold="1" page="1" pageScale="1" pageWidth="850" pageHeight="1100" math="0" shadow="0">
      <root>
        <mxCell id="0" />
        <mxCell id="1" parent="0" />
        <mxCell id="5B7S3J_M6lUMObVh_16C-1" value="John" style="whiteSpace=wrap;html=1;aspect=fixed;" vertex="1" parent="1">
          <mxGeometry x="210" y="190" width="80" height="80" as="geometry" />
        </mxCell>
        <mxCell id="5B7S3J_M6lUMObVh_16C-2" value="" style="endArrow=classic;html=1;rounded=0;entryX=1;entryY=0.5;entryDx=0;entryDy=0;exitX=0;exitY=0.5;exitDx=0;exitDy=0;" edge="1" parent="1" source="5B7S3J_M6lUMObVh_16C-4" target="5B7S3J_M6lUMObVh_16C-1">
          <mxGeometry relative="1" as="geometry">
            <mxPoint x="290" y="230" as="sourcePoint" />
            <mxPoint x="390" y="230" as="targetPoint" />
          </mxGeometry>
        </mxCell>
        <mxCell id="5B7S3J_M6lUMObVh_16C-3" value="agent" style="edgeLabel;resizable=0;html=1;align=center;verticalAlign=middle;" connectable="0" vertex="1" parent="5B7S3J_M6lUMObVh_16C-2">
          <mxGeometry relative="1" as="geometry" />
        </mxCell>
        <mxCell id="5B7S3J_M6lUMObVh_16C-4" value="deposit" style="whiteSpace=wrap;html=1;aspect=fixed;" vertex="1" parent="1">
          <mxGeometry x="390" y="190" width="80" height="80" as="geometry" />
        </mxCell>
        <mxCell id="5B7S3J_M6lUMObVh_16C-5" value="money" style="whiteSpace=wrap;html=1;aspect=fixed;" vertex="1" parent="1">
          <mxGeometry x="570" y="190" width="80" height="80" as="geometry" />
        </mxCell>
        <mxCell id="5B7S3J_M6lUMObVh_16C-6" value="" style="endArrow=classic;html=1;rounded=0;" edge="1" parent="1">
          <mxGeometry relative="1" as="geometry">
            <mxPoint x="470" y="230" as="sourcePoint" />
            <mxPoint x="570" y="230" as="targetPoint" />
          </mxGeometry>
        </mxCell>
        <mxCell id="5B7S3J_M6lUMObVh_16C-7" value="object" style="edgeLabel;resizable=0;html=1;align=center;verticalAlign=middle;" connectable="0" vertex="1" parent="5B7S3J_M6lUMObVh_16C-6">
          <mxGeometry relative="1" as="geometry" />
        </mxCell>
        <mxCell id="5B7S3J_M6lUMObVh_16C-8" value="" style="endArrow=classic;html=1;rounded=0;exitX=0.5;exitY=1;exitDx=0;exitDy=0;" edge="1" parent="1" source="5B7S3J_M6lUMObVh_16C-4" target="5B7S3J_M6lUMObVh_16C-10">
          <mxGeometry relative="1" as="geometry">
            <mxPoint x="370" y="370" as="sourcePoint" />
            <mxPoint x="470" y="370" as="targetPoint" />
          </mxGeometry>
        </mxCell>
        <mxCell id="5B7S3J_M6lUMObVh_16C-9" value="destination" style="edgeLabel;resizable=0;html=1;align=center;verticalAlign=middle;" connectable="0" vertex="1" parent="5B7S3J_M6lUMObVh_16C-8">
          <mxGeometry relative="1" as="geometry">
            <mxPoint as="offset" />
          </mxGeometry>
        </mxCell>
        <mxCell id="5B7S3J_M6lUMObVh_16C-10" value="bank" style="whiteSpace=wrap;html=1;aspect=fixed;" vertex="1" parent="1">
          <mxGeometry x="390" y="330" width="80" height="80" as="geometry" />
        </mxCell>
        <mxCell id="5B7S3J_M6lUMObVh_16C-11" value="downtown" style="whiteSpace=wrap;html=1;aspect=fixed;" vertex="1" parent="1">
          <mxGeometry x="390" y="470" width="80" height="80" as="geometry" />
        </mxCell>
        <mxCell id="5B7S3J_M6lUMObVh_16C-12" value="" style="endArrow=classic;html=1;rounded=0;entryX=0.5;entryY=0;entryDx=0;entryDy=0;exitX=0.5;exitY=1;exitDx=0;exitDy=0;" edge="1" parent="1" source="5B7S3J_M6lUMObVh_16C-10" target="5B7S3J_M6lUMObVh_16C-11">
          <mxGeometry relative="1" as="geometry">
            <mxPoint x="410" y="400" as="sourcePoint" />
            <mxPoint x="460" y="430" as="targetPoint" />
          </mxGeometry>
        </mxCell>
        <mxCell id="5B7S3J_M6lUMObVh_16C-13" value="location" style="edgeLabel;resizable=0;html=1;align=center;verticalAlign=middle;" connectable="0" vertex="1" parent="5B7S3J_M6lUMObVh_16C-12">
          <mxGeometry relative="1" as="geometry">
            <mxPoint y="-20" as="offset" />
          </mxGeometry>
        </mxCell>
        <mxCell id="5B7S3J_M6lUMObVh_16C-14" value="" style="endArrow=classic;html=1;rounded=0;" edge="1" parent="1" target="5B7S3J_M6lUMObVh_16C-16">
          <mxGeometry relative="1" as="geometry">
            <mxPoint x="420" y="190" as="sourcePoint" />
            <mxPoint x="420" y="130" as="targetPoint" />
          </mxGeometry>
        </mxCell>
        <mxCell id="5B7S3J_M6lUMObVh_16C-15" value="time" style="edgeLabel;resizable=0;html=1;align=center;verticalAlign=middle;" connectable="0" vertex="1" parent="5B7S3J_M6lUMObVh_16C-14">
          <mxGeometry relative="1" as="geometry" />
        </mxCell>
        <mxCell id="5B7S3J_M6lUMObVh_16C-16" value="past" style="whiteSpace=wrap;html=1;aspect=fixed;" vertex="1" parent="1">
          <mxGeometry x="380" y="60" width="80" height="80" as="geometry" />
        </mxCell>
      </root>
    </mxGraphModel>
  </diagram>
</mxfile>
